<svg xmlns="http://www.w3.org/2000/svg" viewBox="0 0 96 96" fill="none">
  <circle cx="48" cy="48" r="44" stroke="#6366f1" stroke-width="4" fill="#0f172a"/>
  <path d="M48 20 L68 32 L68 56 C68 64 58 76 48 80 C38 76 28 64 28 56 L28 32 Z"
        stroke="#22d3ee" stroke-width="3" fill="none" stroke-linejoin="round"/>
  <circle cx="48" cy="48" r="3" fill="#22d3ee"/>
  <circle cx="40" cy="42" r="2.5" fill="#6366f1"/>
  <circle cx="56" cy="42" r="2.5" fill="#6366f1"/>
  <circle cx="40" cy="54" r="2.5" fill="#6366f1"/>
  <circle cx="56" cy="54" r="2.5" fill="#6366f1"/>
  <line x1="44" y1="46" x2="40" y2="42" stroke="#6366f1" stroke-width="1.5"/>
  <line x1="52" y1="46" x2="56" y2="42" stroke="#6366f1" stroke-width="1.5"/>
  <line x1="44" y1="50" x2="40" y2="54" stroke="#6366f1" stroke-width="1.5"/>
  <line x1="52" y1="50" x2="56" y2="54" stroke="#6366f1" stroke-width="1.5"/>
  <line x1="48" y1="48" x2="44" y2="46" stroke="#6366f1" stroke-width="1.5"/>
  <line x1="48" y1="48" x2="52" y2="46" stroke="#6366f1" stroke-width="1.5"/>
  <line x1="48" y1="48" x2="44" y2="50" stroke="#6366f1" stroke-width="1.5"/>
  <line x1="48" y1="48" x2="52" y2="50" stroke="#6366f1" stroke-width="1.5"/>
  <line x1="48" y1="48" x2="48" y2="44" stroke="#6366f1" stroke-width="1.5"/>
  <line x1="48" y1="48" x2="48" y2="52" stroke="#6366f1" stroke-width="1.5"/>
  <circle cx="48" cy="44" r="1.5" fill="#6366f1"/>
  <circle cx="48" cy="52" r="1.5" fill="#6366f1"/>
  <path d="M28 64 C34 70 40 72 48 72 C56 72 62 70 68 64"
        stroke="#22d3ee" stroke-width="1.5" fill="none" stroke-linecap="round"/>
  <text x="48" y="89" text-anchor="middle" fill="#6366f1" font-size="7" font-family="monospace" font-weight="bold">SMO</text>
</svg>
