<svg xmlns="http://www.w3.org/2000/svg" viewBox="0 0 96 120" fill="none">
  <rect width="96" height="120" rx="12" fill="#0b1121"/>

  <!-- Top + -->
  <circle cx="48" cy="16" r="6" fill="#6366f1"/>
  <path d="M48 8 L48 24 M40 16 L56 16" stroke="#22d3ee" stroke-width="2.5" stroke-linecap="round"/>

  <!-- <|> pillar -->
  <path d="M34 32 L48 28 L62 32" stroke="#6366f1" stroke-width="2.5" stroke-linecap="round" stroke-linejoin="round"/>
  <line x1="48" y1="28" x2="48" y2="78" stroke="#22d3ee" stroke-width="3" stroke-linecap="round"/>
  <path d="M34 78 L48 82 L62 78" stroke="#6366f1" stroke-width="2.5" stroke-linecap="round" stroke-linejoin="round"/>

  <!-- Arrow tips on <|> -->
  <polygon points="34,32 28,38 34,38" fill="#6366f1"/>
  <polygon points="62,32 68,38 62,38" fill="#6366f1"/>
  <polygon points="34,78 28,72 34,72" fill="#6366f1"/>
  <polygon points="62,78 68,72 62,72" fill="#6366f1"/>

  <!-- Bottom + -->
  <circle cx="48" cy="96" r="6" fill="#6366f1"/>
  <path d="M48 88 L48 104 M40 96 L56 96" stroke="#22d3ee" stroke-width="2.5" stroke-linecap="round"/>

  <!-- Subtle glow dots along pillar -->
  <circle cx="48" cy="42" r="1.5" fill="#22d3ee" opacity="0.6"/>
  <circle cx="48" cy="52" r="1.5" fill="#22d3ee" opacity="0.4"/>
  <circle cx="48" cy="62" r="1.5" fill="#22d3ee" opacity="0.6"/>
  <circle cx="48" cy="72" r="1.5" fill="#22d3ee" opacity="0.4"/>

  <!-- Side glows -->
  <line x1="30" y1="38" x2="28" y2="48" stroke="#6366f1" stroke-width="1" opacity="0.4"/>
  <line x1="66" y1="38" x2="68" y2="48" stroke="#6366f1" stroke-width="1" opacity="0.4"/>
  <line x1="30" y1="72" x2="28" y2="62" stroke="#6366f1" stroke-width="1" opacity="0.4"/>
  <line x1="66" y1="72" x2="68" y2="62" stroke="#6366f1" stroke-width="1" opacity="0.4"/>
</svg>
